<svg preserveAspectRatio="none" width="100%" height="100%" overflow="visible" style="display: block;" viewBox="0 0 338.619 547.729" fill="none" xmlns="http://www.w3.org/2000/svg">
<path id="Vector 45" d="M336.554 19.0228C333.054 -20.4772 196.554 14.5228 189.054 19.0228C178.554 20.8562 156.054 27.7229 150.054 40.5229C142.554 56.5229 85.5535 69.5229 62.5535 67.0229C44.1535 65.0229 13.5535 73.1896 0.55353 77.5229L44.0535 384.523C55.0535 381.856 81.0535 379.623 97.0535 392.023C117.054 407.523 165.054 475.523 160.054 488.023C155.054 500.523 173.054 541.023 186.554 545.023C200.054 549.023 237.554 547.523 274.054 541.023C310.554 534.523 310.554 503.523 310.554 475.523C310.554 447.523 275.054 429.523 259.554 420.523C244.054 411.523 231.554 395.023 237.554 363.023C243.554 331.023 225.054 341.523 203.054 331.523C181.054 321.523 178.554 298.023 178.554 278.023C178.554 258.023 227.054 244.523 225.054 220.023C223.054 195.523 210.554 183.523 277.054 149.023C343.554 114.523 340.054 58.5228 336.554 19.0228Z" fill="var(--fill-0, #545252)" fill-opacity="0.14" stroke="var(--stroke-0, white)" stroke-opacity="0.2" stroke-dasharray="15 15"/>
</svg>
