<svg preserveAspectRatio="none" width="100%" height="100%" overflow="visible" style="display: block;" viewBox="0 0 142.745 166.04" fill="none" xmlns="http://www.w3.org/2000/svg">
<path id="Vector 30" d="M56.2945 8.24953C45.4945 -2.95047 30.2942 -0.750422 17.2944 3.24956C4.29462 7.24954 13.8948 19.3491 8.29483 29.7491C1.29483 42.7491 -6.20556 41.2491 8.29444 63.2491C22.7944 85.2491 31.7945 78.2491 48.2945 89.2491C64.7945 100.249 76.7945 106.749 65.7945 136.249C54.7945 165.749 78.2945 156.749 96.7945 163.749C115.295 170.749 129.795 160.749 137.295 146.749C144.795 132.749 148.295 117.249 122.295 111.749C96.2945 106.249 74.7945 89.2491 65.7945 60.2491C56.7945 31.2491 69.7945 22.2495 56.2945 8.24953Z" fill="var(--fill-0, #78CCF3)" fill-opacity="0.34"/>
</svg>
