<svg preserveAspectRatio="none" width="100%" height="100%" overflow="visible" style="display: block;" viewBox="0 0 167.885 190.769" fill="none" xmlns="http://www.w3.org/2000/svg">
<path id="Vector 29" d="M86.6131 17.9116C75.8131 6.71156 33.1129 -3.08842 20.1131 0.91156C7.11328 4.91154 9.21309 28.5116 3.61309 38.9116C-3.37162 51.8832 -0.399964 56.3919 14.0182 78.2676L14.1131 78.4116C28.6131 100.412 34.1131 101.912 50.6131 112.912C67.1131 123.912 72.6131 133.412 61.6131 162.912C50.6131 192.412 76.6131 181.412 95.1131 188.412C113.613 195.412 155.113 185.912 162.613 171.912C170.113 157.912 173.113 118.412 147.113 112.912C121.113 107.412 104.113 95.4116 95.1131 66.4116C86.1131 37.4116 100.113 31.9116 86.6131 17.9116Z" fill="var(--fill-0, #78CCF3)" fill-opacity="0.34"/>
</svg>
