<svg preserveAspectRatio="none" width="100%" height="100%" overflow="visible" style="display: block;" viewBox="0 0 203.807 329.332" fill="none" xmlns="http://www.w3.org/2000/svg">
<path id="Vector 46" d="M143.085 0.678689L144.02 0.514347C159.52 5.68101 192.621 20.9143 201.021 40.5143C211.521 65.0143 187.521 73.5143 165.021 84.0143C142.521 94.5143 144.02 109.014 165.021 116.514C186.021 124.014 182.021 153.514 181.021 180.014C180.021 206.514 164.021 209.514 144.02 230.514C124.02 251.514 144.02 257.014 155.521 278.514C167.021 300.014 128.521 337.514 121.021 327.014C113.521 316.514 81.5205 292.014 62.5205 265.514C43.5205 239.014 46.0204 238.014 46.0204 219.014C46.0204 200.014 81.5205 186.514 100.021 164.014C118.521 141.514 103.021 148.514 81.5205 128.014C60.0205 107.514 18.5204 120.014 3.52041 99.5143C-11.4796 79.0143 25.5204 48.0143 46.0204 31.0143C66.3478 14.1575 106.34 7.13296 143.085 0.678689Z" fill="var(--fill-0, #293D68)" stroke="var(--stroke-0, white)" stroke-opacity="0.2" stroke-dasharray="15 15"/>
</svg>
