<svg preserveAspectRatio="none" width="100%" height="100%" overflow="visible" style="display: block;" viewBox="0 0 29.7582 39.3067" fill="none" xmlns="http://www.w3.org/2000/svg">
<g id="Group 2">
<path id="Vector 39" d="M0.202637 17.5634C-0.297363 12.5634 10.7026 6.5634 11.2026 6.0634C15.536 4.23006 24.5026 0.463396 25.7026 0.0633964C27.2026 -0.436604 30.2026 2.0634 29.7026 6.0634C29.2026 10.0634 20.7026 9.0634 16.7026 13.5634C12.7026 18.0634 15.7026 25.0634 17.7026 28.0634C19.7026 31.0634 24.7026 34.0634 24.2026 38.0634C23.7026 42.0634 17.2026 35.5634 7.20264 30.5634C-2.79736 25.5634 0.702637 22.5634 0.202637 17.5634Z" fill="var(--fill-0, #E2F28F)" fill-opacity="0.4"/>
<path id="Vector 40" d="M1.92942 21.0052C-0.0705833 18.0052 2.42942 17.0052 4.92942 14.0052C5.92942 13.6719 8.12942 13.2052 8.92942 14.0052C9.92942 15.0052 7.42942 17.0052 6.92942 19.5052C6.42942 22.0052 10.4294 23.5052 8.92942 25.5052C7.42942 27.5052 3.92942 24.0052 1.92942 21.0052Z" fill="var(--fill-0, #E2F28F)" fill-opacity="0.4"/>
</g>
</svg>
