<svg preserveAspectRatio="none" width="100%" height="100%" overflow="visible" style="display: block;" viewBox="0 0 296.178 160.852" fill="none" xmlns="http://www.w3.org/2000/svg">
<g id="Vector 5" filter="url(#filter0_ii_0_4)">
<path d="M202.255 122C181.642 122 139.755 96.9895 106.755 122C59.2553 158 33.0973 168.5 13.2553 155.5C-3.24468 144.69 -3.46219 116.784 7.75528 92C22.9348 58.4618 69.3758 1.63824 138.576 0.0382415C208.772 -1.58478 263.821 48.8178 281.812 82.0382C291.755 98 303.155 130.7 290.755 147.5C280.755 161.048 253.755 158 241.255 153C224.255 146.2 215.255 125 209.755 123.5C205.355 122.3 202.922 122 202.255 122Z" fill="url(#paint0_linear_0_4)"/>
</g>
<defs>
<filter id="filter0_ii_0_4" x="0" y="0" width="296.178" height="160.852" filterUnits="userSpaceOnUse" color-interpolation-filters="sRGB">
<feFlood flood-opacity="0" result="BackgroundImageFix"/>
<feBlend mode="normal" in="SourceGraphic" in2="BackgroundImageFix" result="shape"/>
<feColorMatrix in="SourceAlpha" type="matrix" values="0 0 0 0 0 0 0 0 0 0 0 0 0 0 0 0 0 0 127 0" result="hardAlpha"/>
<feOffset/>
<feGaussianBlur stdDeviation="15"/>
<feComposite in2="hardAlpha" operator="arithmetic" k2="-1" k3="1"/>
<feColorMatrix type="matrix" values="0 0 0 0 0 0 0 0 0 0 0 0 0 0 0 0 0 0 0.25 0"/>
<feBlend mode="normal" in2="shape" result="effect1_innerShadow_0_4"/>
<feColorMatrix in="SourceAlpha" type="matrix" values="0 0 0 0 0 0 0 0 0 0 0 0 0 0 0 0 0 0 127 0" result="hardAlpha"/>
<feOffset/>
<feGaussianBlur stdDeviation="25"/>
<feComposite in2="hardAlpha" operator="arithmetic" k2="-1" k3="1"/>
<feColorMatrix type="matrix" values="0 0 0 0 1 0 0 0 0 1 0 0 0 0 1 0 0 0 0.8 0"/>
<feBlend mode="normal" in2="effect1_innerShadow_0_4" result="effect2_innerShadow_0_4"/>
</filter>
<linearGradient id="paint0_linear_0_4" x1="167.212" y1="-17.5531" x2="150.947" y2="161.112" gradientUnits="userSpaceOnUse">
<stop offset="0.139423" stop-color="#3F4376" stop-opacity="0.68"/>
<stop offset="1" stop-color="#757DDC" stop-opacity="0.2"/>
</linearGradient>
</defs>
</svg>
