<svg preserveAspectRatio="none" width="100%" height="100%" overflow="visible" style="display: block;" viewBox="0 0 359 612" fill="none" xmlns="http://www.w3.org/2000/svg">
<foreignObject x="0" y="0" width="359" height="612"><div xmlns="http://www.w3.org/1999/xhtml" style="backdrop-filter:blur(2px);clip-path:url(#bgblur_0_0_4_clip_path);height:100%;width:100%"></div></foreignObject><g id="Rectangle 1" filter="url(#filter0_di_0_4)" data-figma-bg-blur-radius="4">
<path fill-rule="evenodd" clip-rule="evenodd" d="M32 405.788C42.4934 405.788 51 396.959 51 386.068C51 375.177 42.4934 366.348 32 366.348V59C32 41.8792 45.8792 28 63 28H296C313.121 28 327 41.8792 327 59V366.348C316.507 366.348 308 375.177 308 386.068C308 396.959 316.507 405.788 327 405.788V545C327 562.121 313.121 576 296 576H63C45.8792 576 32 562.121 32 545V405.788Z" fill="url(#paint0_radial_0_4)" shape-rendering="crispEdges"/>
</g>
<defs>
<filter id="filter0_di_0_4" x="0" y="0" width="359" height="612" filterUnits="userSpaceOnUse" color-interpolation-filters="sRGB">
<feFlood flood-opacity="0" result="BackgroundImageFix"/>
<feColorMatrix in="SourceAlpha" type="matrix" values="0 0 0 0 0 0 0 0 0 0 0 0 0 0 0 0 0 0 127 0" result="hardAlpha"/>
<feOffset dy="4"/>
<feGaussianBlur stdDeviation="16"/>
<feComposite in2="hardAlpha" operator="out"/>
<feColorMatrix type="matrix" values="0 0 0 0 0 0 0 0 0 0 0 0 0 0 0 0 0 0 0.25 0"/>
<feBlend mode="normal" in2="BackgroundImageFix" result="effect1_dropShadow_0_4"/>
<feBlend mode="normal" in="SourceGraphic" in2="effect1_dropShadow_0_4" result="shape"/>
<feColorMatrix in="SourceAlpha" type="matrix" values="0 0 0 0 0 0 0 0 0 0 0 0 0 0 0 0 0 0 127 0" result="hardAlpha"/>
<feOffset dy="4"/>
<feGaussianBlur stdDeviation="2"/>
<feComposite in2="hardAlpha" operator="arithmetic" k2="-1" k3="1"/>
<feColorMatrix type="matrix" values="0 0 0 0 1 0 0 0 0 1 0 0 0 0 1 0 0 0 0.25 0"/>
<feBlend mode="normal" in2="shape" result="effect2_innerShadow_0_4"/>
</filter>
<clipPath id="bgblur_0_0_4_clip_path" transform="translate(0 0)"><path fill-rule="evenodd" clip-rule="evenodd" d="M32 405.788C42.4934 405.788 51 396.959 51 386.068C51 375.177 42.4934 366.348 32 366.348V59C32 41.8792 45.8792 28 63 28H296C313.121 28 327 41.8792 327 59V366.348C316.507 366.348 308 375.177 308 386.068C308 396.959 316.507 405.788 327 405.788V545C327 562.121 313.121 576 296 576H63C45.8792 576 32 562.121 32 545V405.788Z"/>
</clipPath><radialGradient id="paint0_radial_0_4" cx="0" cy="0" r="1" gradientTransform="matrix(-332.33 574.804 -309.429 -306.269 327 28)" gradientUnits="userSpaceOnUse">
<stop offset="0.144231" stop-color="#12D3FF" stop-opacity="0.19"/>
<stop offset="0.697115" stop-color="#EEFAFD" stop-opacity="0.01"/>
<stop offset="1" stop-color="white" stop-opacity="0"/>
</radialGradient>
</defs>
</svg>
