<svg width="28" height="28" viewBox="0 0 28 28" fill="none" xmlns="http://www.w3.org/2000/svg">
<path d="M15.1614 24.4912H24.4914" stroke="#ADAFC8" stroke-width="1.74939" stroke-linecap="round" stroke-linejoin="round"/>
<path d="M24.6944 7.94451C25.311 7.32806 25.6575 6.4919 25.6576 5.61999C25.6577 4.74808 25.3114 3.91183 24.695 3.29522C24.0785 2.67861 23.2424 2.33214 22.3705 2.33203C21.4986 2.33192 20.6623 2.67818 20.0457 3.29464L4.48081 18.863C4.21003 19.133 4.00978 19.4654 3.89768 19.831L2.35706 24.9066C2.32691 25.0074 2.32464 25.1146 2.35047 25.2166C2.3763 25.3187 2.42927 25.4118 2.50377 25.4862C2.57826 25.5606 2.6715 25.6134 2.7736 25.6391C2.87569 25.6647 2.98282 25.6623 3.08364 25.632L8.16036 24.0925C8.5256 23.9814 8.85798 23.7824 9.12835 23.5129L24.6944 7.94451Z" stroke="#ADAFC8" stroke-width="1.74939" stroke-linecap="round" stroke-linejoin="round"/>
</svg>
