<svg width="28" height="28" viewBox="0 0 28 28" fill="none" xmlns="http://www.w3.org/2000/svg">
<path d="M13.9951 22.1592V25.658" stroke="#ADAFC8" stroke-width="1.74939" stroke-linecap="round" stroke-linejoin="round"/>
<path d="M22.1589 11.6626V13.9951C22.1589 16.1603 21.2988 18.2368 19.7678 19.7678C18.2368 21.2988 16.1603 22.1589 13.9951 22.1589C11.8299 22.1589 9.75343 21.2988 8.22242 19.7678C6.69141 18.2368 5.8313 16.1603 5.8313 13.9951V11.6626" stroke="#ADAFC8" stroke-width="1.74939" stroke-linecap="round" stroke-linejoin="round"/>
<path d="M17.4939 5.8313C17.4939 3.89897 15.9274 2.33252 13.9951 2.33252C12.0628 2.33252 10.4963 3.89897 10.4963 5.8313V13.9951C10.4963 15.9274 12.0628 17.4939 13.9951 17.4939C15.9274 17.4939 17.4939 15.9274 17.4939 13.9951V5.8313Z" stroke="#ADAFC8" stroke-width="1.74939" stroke-linecap="round" stroke-linejoin="round"/>
</svg>
