<svg preserveAspectRatio="none" width="100%" height="100%" overflow="visible" style="display: block;" viewBox="0 0 24 24" fill="none" xmlns="http://www.w3.org/2000/svg">
<g id="&#229;&#136;&#183;&#230;&#150;&#176;_refresh-one 1">
<path id="Vector" d="M11.3284 9.20707L9.20711 11.3284C8.81658 11.7189 8.81658 12.3521 9.20711 12.7426L11.3284 14.8639C11.719 15.2545 12.3521 15.2545 12.7426 14.8639L14.864 12.7426C15.2545 12.3521 15.2545 11.7189 14.864 11.3284L12.7426 9.20707C12.3521 8.81655 11.719 8.81655 11.3284 9.20707Z" stroke="var(--stroke-0, white)" stroke-opacity="0.6" stroke-linecap="round" stroke-linejoin="round"/>
<path id="Vector_2" d="M20.06 8C18.5873 5.03655 15.5293 3 11.9956 3C8.46185 3 5.4727 5.03655 4 8" stroke="var(--stroke-0, white)" stroke-opacity="0.6" stroke-linecap="round"/>
<path id="Vector_3" d="M4 4V8" stroke="var(--stroke-0, white)" stroke-opacity="0.6" stroke-linecap="round"/>
<path id="Vector_4" d="M7.39015 8H4.00006" stroke="var(--stroke-0, white)" stroke-opacity="0.6" stroke-linecap="round"/>
<path id="Vector_5" d="M4 16C5.4727 18.9634 8.53075 21 12.0645 21C15.5982 21 18.5873 18.9634 20.06 16" stroke="var(--stroke-0, white)" stroke-opacity="0.6" stroke-linecap="round"/>
<path id="Vector_6" d="M20.06 20V16" stroke="var(--stroke-0, white)" stroke-opacity="0.6" stroke-linecap="round"/>
<path id="Vector_7" d="M16.6699 16H20.06" stroke="var(--stroke-0, white)" stroke-opacity="0.6" stroke-linecap="round"/>
</g>
</svg>
